<svg width="14" height="14" viewBox="0 0 14 14" fill="none" xmlns="http://www.w3.org/2000/svg">
<path d="M7.00022 4.08333C7.12712 4.08318 7.25259 4.11009 7.36826 4.16227C7.48393 4.21445 7.58714 4.2907 7.671 4.38594L11.4772 8.71164C11.542 8.78186 11.592 8.86431 11.6244 8.95415C11.6568 9.04399 11.6709 9.1394 11.6659 9.23477C11.6609 9.33014 11.6369 9.42355 11.5953 9.50951C11.5537 9.59547 11.4953 9.67224 11.4236 9.73531C11.3519 9.79839 11.2683 9.84649 11.1777 9.87679C11.0871 9.90709 10.9914 9.91899 10.8962 9.91177C10.801 9.90456 10.7081 9.87838 10.6232 9.83477C10.5382 9.79117 10.4628 9.73102 10.4014 9.65786L7.07316 5.8753C7.06406 5.86491 7.05284 5.85659 7.04026 5.85089C7.02768 5.84519 7.01403 5.84224 7.00022 5.84224C6.98641 5.84224 6.97276 5.84519 6.96019 5.85089C6.94761 5.85659 6.93639 5.86491 6.92729 5.8753L3.59902 9.65864C3.53763 9.73179 3.46224 9.79194 3.37727 9.83555C3.29231 9.87915 3.19948 9.90533 3.10425 9.91255C3.00902 9.91976 2.91331 9.90787 2.82274 9.87757C2.73218 9.84726 2.64858 9.79916 2.57687 9.73609C2.50516 9.67301 2.44678 9.59624 2.40517 9.51028C2.36355 9.42433 2.33954 9.33092 2.33454 9.23554C2.32954 9.14017 2.34366 9.04477 2.37606 8.95493C2.40846 8.86509 2.4585 8.78264 2.52322 8.71241L6.32829 4.38749C6.41229 4.29202 6.51566 4.21552 6.63151 4.16308C6.74737 4.11064 6.87305 4.08345 7.00022 4.08333Z" fill="#6F7B8D"/>
</svg>
